<?xml version="1.0" encoding="utf-8"?>
<!-- Generated by Mocodo 4.3.2 -->
<svg width="1350" height="753" viewBox="0 0 1350 753" xmlns="http://www.w3.org/2000/svg">
<rect x="0" y="0" width="1350" height="753" fill="#f7f7f7" stroke="none" stroke-width="0"/>

<!-- Association RECEVOIR_COLIS -->
<g>
	<line x1="100" y1="85" x2="294" y2="85" stroke="#9970ab" stroke-width="2"/>
	<line x1="484" y1="85" x2="294" y2="85" stroke="#9970ab" stroke-width="2"/>
	<g>
		<path d="M342 60 a14 14 90 0 1 14 14 V85 h-124 V74 a14 14 90 0 1 14 -14" fill="#c2a5cf" stroke="#c2a5cf" stroke-width="0"/>
		<path d="M356 85 v11 a14 14 90 0 1 -14 14 H246 a14 14 90 0 1 -14 -14 V85 H124" fill="#e7d4e8" stroke="#e7d4e8" stroke-width="0"/>
		<rect x="232" y="60" width="124" height="50" fill="none" rx="14" stroke="#9970ab" stroke-width="2"/>
		<line x1="232" y1="85" x2="356" y2="85" stroke="#9970ab" stroke-width="1"/>
		<text x="240" y="77.75" fill="#000000" font-family="Verdana" font-size="12">RECEVOIR_COLIS</text>
	</g>
	<text x="174" y="102" fill="#1b7837" font-family="Verdana" font-size="12">1,1</text>
	<text x="413" y="102" fill="#1b7837" font-family="Verdana" font-size="12">1,N</text>
</g>

<!-- Association CONTENIR -->
<g>
	<line x1="484" y1="85" x2="656" y2="85" stroke="#9970ab" stroke-width="2"/>
	<line x1="813" y1="85" x2="656" y2="85" stroke="#9970ab" stroke-width="2"/>
	<g>
		<path d="M682 60 a14 14 90 0 1 14 14 V85 h-80 V74 a14 14 90 0 1 14 -14" fill="#c2a5cf" stroke="#c2a5cf" stroke-width="0"/>
		<path d="M696 85 v11 a14 14 90 0 1 -14 14 H630 a14 14 90 0 1 -14 -14 V85 H80" fill="#e7d4e8" stroke="#e7d4e8" stroke-width="0"/>
		<rect x="616" y="60" width="80" height="50" fill="none" rx="14" stroke="#9970ab" stroke-width="2"/>
		<line x1="616" y1="85" x2="696" y2="85" stroke="#9970ab" stroke-width="1"/>
		<text x="624" y="77.75" fill="#000000" font-family="Verdana" font-size="12">CONTENIR</text>
		<text x="623" y="102.8" fill="#000000" font-family="Verdana" font-size="12">quantite</text>
	</g>
	<text x="533" y="77" fill="#1b7837" font-family="Verdana" font-size="12">1,N</text>
	<text x="724" y="102" fill="#1b7837" font-family="Verdana" font-size="12">1,N</text>
</g>

<!-- Association COMPOSER_ENTREPOT -->
<g>
	<line x1="1154" y1="85" x2="985" y2="85" stroke="#9970ab" stroke-width="2"/>
	<line x1="985" y1="228" x2="985" y2="85" stroke="#9970ab" stroke-width="2"/>
	<g>
		<path d="M1049 60 a14 14 90 0 1 14 14 V85 h-156 V74 a14 14 90 0 1 14 -14" fill="#c2a5cf" stroke="#c2a5cf" stroke-width="0"/>
		<path d="M1063 85 v11 a14 14 90 0 1 -14 14 H921 a14 14 90 0 1 -14 -14 V85 H156" fill="#e7d4e8" stroke="#e7d4e8" stroke-width="0"/>
		<rect x="907" y="60" width="156" height="50" fill="none" rx="14" stroke="#9970ab" stroke-width="2"/>
		<line x1="907" y1="85" x2="1063" y2="85" stroke="#9970ab" stroke-width="1"/>
		<text x="915" y="77.75" fill="#000000" font-family="Verdana" font-size="12">COMPOSER_ENTREPOT</text>
	</g>
	<text x="1069" y="102" fill="#1b7837" font-family="Verdana" font-size="12">1,1</text>
	<text x="990" y="127" fill="#1b7837" font-family="Verdana" font-size="12">1,N</text>
</g>

<!-- Association RESPONSABLE_RECEPTION -->
<g>
	<line x1="100" y1="414" x2="100" y2="228" stroke="#9970ab" stroke-width="2"/>
	<line x1="100" y1="85" x2="100" y2="228" stroke="#9970ab" stroke-width="2"/>
	<g>
		<path d="M177 203 a14 14 90 0 1 14 14 V228 h-182 V217 a14 14 90 0 1 14 -14" fill="#c2a5cf" stroke="#c2a5cf" stroke-width="0"/>
		<path d="M191 228 v11 a14 14 90 0 1 -14 14 H23 a14 14 90 0 1 -14 -14 V228 H182" fill="#e7d4e8" stroke="#e7d4e8" stroke-width="0"/>
		<rect x="9" y="203" width="182" height="50" fill="none" rx="14" stroke="#9970ab" stroke-width="2"/>
		<line x1="9" y1="228" x2="191" y2="228" stroke="#9970ab" stroke-width="1"/>
		<text x="17" y="220.75" fill="#000000" font-family="Verdana" font-size="12">RESPONSABLE_RECEPTION</text>
	</g>
	<text x="105" y="347" fill="#1b7837" font-family="Verdana" font-size="12">1,1</text>
	<text x="105" y="161" fill="#1b7837" font-family="Verdana" font-size="12">0,N</text>
</g>

<!-- Association EXPEDIER_COLIS -->
<g>
	<line x1="294" y1="228" x2="484" y2="228" stroke="#9970ab" stroke-width="2"/>
	<line x1="484" y1="85" x2="484" y2="228" stroke="#9970ab" stroke-width="2"/>
	<g>
		<path d="M531 203 a14 14 90 0 1 14 14 V228 h-122 V217 a14 14 90 0 1 14 -14" fill="#c2a5cf" stroke="#c2a5cf" stroke-width="0"/>
		<path d="M545 228 v11 a14 14 90 0 1 -14 14 H437 a14 14 90 0 1 -14 -14 V228 H122" fill="#e7d4e8" stroke="#e7d4e8" stroke-width="0"/>
		<rect x="423" y="203" width="122" height="50" fill="none" rx="14" stroke="#9970ab" stroke-width="2"/>
		<line x1="423" y1="228" x2="545" y2="228" stroke="#9970ab" stroke-width="1"/>
		<text x="431" y="220.75" fill="#000000" font-family="Verdana" font-size="12">EXPEDIER_COLIS</text>
	</g>
	<text x="370" y="245" fill="#1b7837" font-family="Verdana" font-size="12">1,1</text>
	<text x="457" y="170" fill="#1b7837" font-family="Verdana" font-size="12">1,N</text>
</g>

<!-- Association UTILISER_EMBALLAGE -->
<g>
	<line x1="484" y1="85" x2="656" y2="228" stroke="#9970ab" stroke-width="2"/>
	<line x1="656" y1="414" x2="656" y2="228" stroke="#9970ab" stroke-width="2"/>
	<g>
		<path d="M718 194 a14 14 90 0 1 14 14 V219 h-152 V208 a14 14 90 0 1 14 -14" fill="#c2a5cf" stroke="#c2a5cf" stroke-width="0"/>
		<path d="M732 219 v29 a14 14 90 0 1 -14 14 H594 a14 14 90 0 1 -14 -14 V219 H152" fill="#e7d4e8" stroke="#e7d4e8" stroke-width="0"/>
		<rect x="580" y="194" width="152" height="68" fill="none" rx="14" stroke="#9970ab" stroke-width="2"/>
		<line x1="580" y1="219" x2="732" y2="219" stroke="#9970ab" stroke-width="1"/>
		<text x="587" y="211.75" fill="#000000" font-family="Verdana" font-size="12">UTILISER_EMBALLAGE</text>
		<text x="587" y="236.8" fill="#000000" font-family="Verdana" font-size="12">quantiteUtilisee</text>
		<text x="587" y="253.8" fill="#000000" font-family="Verdana" font-size="12">estReutilise</text>
	</g>
	<text x="533" y="119.74" fill="#1b7837" font-family="Verdana" font-size="12">0,N</text>
	<text x="661" y="321" fill="#1b7837" font-family="Verdana" font-size="12">0,N</text>
</g>

<!-- Association STOCKER -->
<g>
	<line x1="813" y1="85" x2="813" y2="228" stroke="#9970ab" stroke-width="2"/>
	<line x1="985" y1="228" x2="813" y2="228" stroke="#9970ab" stroke-width="2"/>
	<g>
		<path d="M848 194 a14 14 90 0 1 14 14 V219 h-98 V208 a14 14 90 0 1 14 -14" fill="#c2a5cf" stroke="#c2a5cf" stroke-width="0"/>
		<path d="M862 219 v29 a14 14 90 0 1 -14 14 H778 a14 14 90 0 1 -14 -14 V219 H98" fill="#e7d4e8" stroke="#e7d4e8" stroke-width="0"/>
		<rect x="764" y="194" width="98" height="68" fill="none" rx="14" stroke="#9970ab" stroke-width="2"/>
		<line x1="764" y1="219" x2="862" y2="219" stroke="#9970ab" stroke-width="1"/>
		<text x="784" y="211.75" fill="#000000" font-family="Verdana" font-size="12">STOCKER</text>
		<text x="771" y="236.8" fill="#000000" font-family="Verdana" font-size="12">dateStockage</text>
		<text x="771" y="253.8" fill="#000000" font-family="Verdana" font-size="12">quantite</text>
	</g>
	<text x="818" y="178" fill="#1b7837" font-family="Verdana" font-size="12">1,N</text>
	<text x="904" y="245" fill="#1b7837" font-family="Verdana" font-size="12">1,N</text>
</g>

<!-- Association RESPONSABLE_EXPEDITION -->
<g>
	<line x1="100" y1="414" x2="294" y2="414" stroke="#9970ab" stroke-width="2"/>
	<line x1="294" y1="228" x2="294" y2="414" stroke="#9970ab" stroke-width="2"/>
	<g>
		<path d="M374 389 a14 14 90 0 1 14 14 V414 h-188 V403 a14 14 90 0 1 14 -14" fill="#c2a5cf" stroke="#c2a5cf" stroke-width="0"/>
		<path d="M388 414 v11 a14 14 90 0 1 -14 14 H214 a14 14 90 0 1 -14 -14 V414 H188" fill="#e7d4e8" stroke="#e7d4e8" stroke-width="0"/>
		<rect x="200" y="389" width="188" height="50" fill="none" rx="14" stroke="#9970ab" stroke-width="2"/>
		<line x1="200" y1="414" x2="388" y2="414" stroke="#9970ab" stroke-width="1"/>
		<text x="208" y="406.75" fill="#000000" font-family="Verdana" font-size="12">RESPONSABLE_EXPEDITION</text>
	</g>
	<text x="141" y="406" fill="#1b7837" font-family="Verdana" font-size="12">1,N</text>
	<text x="299" y="313" fill="#1b7837" font-family="Verdana" font-size="12">0,N</text>
</g>

<!-- Association INVENTAIRE -->
<g>
	<line x1="656" y1="414" x2="484" y2="414" stroke="#9970ab" stroke-width="2"/>
	<line x1="484" y1="558" x2="484" y2="414" stroke="#9970ab" stroke-width="2"/>
	<g>
		<path d="M534 389 a14 14 90 0 1 14 14 V414 h-128 V403 a14 14 90 0 1 14 -14" fill="#c2a5cf" stroke="#c2a5cf" stroke-width="0"/>
		<path d="M548 414 v11 a14 14 90 0 1 -14 14 H434 a14 14 90 0 1 -14 -14 V414 H128" fill="#e7d4e8" stroke="#e7d4e8" stroke-width="0"/>
		<rect x="420" y="389" width="128" height="50" fill="none" rx="14" stroke="#9970ab" stroke-width="2"/>
		<line x1="420" y1="414" x2="548" y2="414" stroke="#9970ab" stroke-width="1"/>
		<text x="446" y="406.75" fill="#000000" font-family="Verdana" font-size="12">INVENTAIRE</text>
		<text x="427" y="431.8" fill="#000000" font-family="Verdana" font-size="12">quantiteDisponible</text>
	</g>
	<text x="559" y="431" fill="#1b7837" font-family="Verdana" font-size="12">1,N</text>
	<text x="489" y="491" fill="#1b7837" font-family="Verdana" font-size="12">0,N</text>
</g>

<!-- Association DF0 -->
<g>
	<line x1="985" y1="414" x2="813" y2="414" stroke="#9970ab" stroke-width="2"/>
	<line x1="656" y1="414" x2="813" y2="414" stroke="#9970ab" stroke-width="2"/>
	<g>
		<circle cx="813" cy="414" r="16" stroke="#9970ab" stroke-width="2" fill="#c2a5cf"/>
		<text x="804" y="418" fill="#000000" font-family="Verdana" font-size="12">DF</text>
	</g>
	<text x="891" y="431" fill="#1b7837" font-family="Verdana" font-size="12">1,1</text>
	<line x1="891" y1="433" x2="912" y2="433" stroke="#1b7837" stroke-width="1"/>
	<text x="731" y="406" fill="#1b7837" font-family="Verdana" font-size="12">1,1</text>
</g>

<!-- Association GENERER_RAPPORT -->
<g>
	<line x1="100" y1="414" x2="100" y2="558" stroke="#9970ab" stroke-width="2"/>
	<line x1="100" y1="676" x2="100" y2="558" stroke="#9970ab" stroke-width="2"/>
	<g>
		<path d="M155 533 a14 14 90 0 1 14 14 V558 h-138 V547 a14 14 90 0 1 14 -14" fill="#c2a5cf" stroke="#c2a5cf" stroke-width="0"/>
		<path d="M169 558 v11 a14 14 90 0 1 -14 14 H45 a14 14 90 0 1 -14 -14 V558 H138" fill="#e7d4e8" stroke="#e7d4e8" stroke-width="0"/>
		<rect x="31" y="533" width="138" height="50" fill="none" rx="14" stroke="#9970ab" stroke-width="2"/>
		<line x1="31" y1="558" x2="169" y2="558" stroke="#9970ab" stroke-width="1"/>
		<text x="39" y="550.75" fill="#000000" font-family="Verdana" font-size="12">GENERER_RAPPORT</text>
	</g>
	<text x="73" y="490" fill="#1b7837" font-family="Verdana" font-size="12">1,N</text>
	<text x="105" y="600" fill="#1b7837" font-family="Verdana" font-size="12">0,N</text>
</g>

<!-- Association AFFECTER_ROLE -->
<g>
	<line x1="100" y1="414" x2="294" y2="558" stroke="#9970ab" stroke-width="2"/>
	<line x1="484" y1="558" x2="294" y2="558" stroke="#9970ab" stroke-width="2"/>
	<line x1="294" y1="676" x2="294" y2="558" stroke="#9970ab" stroke-width="2"/>
	<g>
		<path d="M338 516 a14 14 90 0 1 14 14 V541 h-116 V530 a14 14 90 0 1 14 -14" fill="#c2a5cf" stroke="#c2a5cf" stroke-width="0"/>
		<path d="M352 541 v45 a14 14 90 0 1 -14 14 H250 a14 14 90 0 1 -14 -14 V541 H116" fill="#e7d4e8" stroke="#e7d4e8" stroke-width="0"/>
		<rect x="236" y="516" width="116" height="84" fill="none" rx="14" stroke="#9970ab" stroke-width="2"/>
		<line x1="236" y1="541" x2="352" y2="541" stroke="#9970ab" stroke-width="1"/>
		<text x="243" y="533.75" fill="#000000" font-family="Verdana" font-size="12">AFFECTER_ROLE</text>
		<text x="243" y="558.8" fill="#000000" font-family="Verdana" font-size="12">dateDebut</text>
		<text x="243" y="575.8" fill="#000000" font-family="Verdana" font-size="12">dateFin</text>
		<text x="243" y="592.8" fill="#000000" font-family="Verdana" font-size="12">estActif</text>
	</g>
	<text x="141" y="438.33" fill="#1b7837" font-family="Verdana" font-size="12">1,1</text>
	<text x="403" y="575" fill="#1b7837" font-family="Verdana" font-size="12">0,N</text>
	<text x="299" y="626" fill="#1b7837" font-family="Verdana" font-size="12">1,N</text>
</g>

<!-- Association APPROVISIONNER -->
<g>
	<line x1="656" y1="676" x2="656" y2="558" stroke="#9970ab" stroke-width="2"/>
	<line x1="656" y1="414" x2="656" y2="558" stroke="#9970ab" stroke-width="2"/>
	<g>
		<path d="M728 524 a14 14 90 0 1 14 14 V549 h-172 V538 a14 14 90 0 1 14 -14" fill="#c2a5cf" stroke="#c2a5cf" stroke-width="0"/>
		<path d="M742 549 v29 a14 14 90 0 1 -14 14 H584 a14 14 90 0 1 -14 -14 V549 H172" fill="#e7d4e8" stroke="#e7d4e8" stroke-width="0"/>
		<rect x="570" y="524" width="172" height="68" fill="none" rx="14" stroke="#9970ab" stroke-width="2"/>
		<line x1="570" y1="549" x2="742" y2="549" stroke="#9970ab" stroke-width="1"/>
		<text x="601" y="541.75" fill="#000000" font-family="Verdana" font-size="12">APPROVISIONNER</text>
		<text x="577" y="566.8" fill="#000000" font-family="Verdana" font-size="12">delaiLivraisonMoyen</text>
		<text x="577" y="583.8" fill="#000000" font-family="Verdana" font-size="12">conditionnementStandard</text>
	</g>
	<text x="661" y="643" fill="#1b7837" font-family="Verdana" font-size="12">1,1</text>
	<text x="629" y="516" fill="#1b7837" font-family="Verdana" font-size="12">0,N</text>
</g>

<!-- Association DF1 -->
<g>
	<line x1="813" y1="676" x2="813" y2="558" stroke="#9970ab" stroke-width="2"/>
	<line x1="656" y1="414" x2="813" y2="558" stroke="#9970ab" stroke-width="2"/>
	<g>
		<circle cx="813" cy="558" r="16" stroke="#9970ab" stroke-width="2" fill="#c2a5cf"/>
		<text x="804" y="562" fill="#000000" font-family="Verdana" font-size="12">DF</text>
	</g>
	<text x="818" y="617" fill="#1b7837" font-family="Verdana" font-size="12">1,1</text>
	<line x1="818" y1="619" x2="839" y2="619" stroke="#1b7837" stroke-width="1"/>
	<text x="731" y="476.84" fill="#1b7837" font-family="Verdana" font-size="12">1,1</text>
</g>

<!-- Association DF2 -->
<g>
	<line x1="656" y1="676" x2="484" y2="676" stroke="#9970ab" stroke-width="2"/>
	<line x1="484" y1="558" x2="484" y2="676" stroke="#9970ab" stroke-width="2"/>
	<g>
		<circle cx="484" cy="676" r="16" stroke="#9970ab" stroke-width="2" fill="#c2a5cf"/>
		<text x="475" y="680" fill="#000000" font-family="Verdana" font-size="12">DF</text>
	</g>
	<text x="580" y="693" fill="#1b7837" font-family="Verdana" font-size="12">1,1</text>
	<line x1="580" y1="695" x2="601" y2="695" stroke="#1b7837" stroke-width="1"/>
	<text x="489" y="634" fill="#1b7837" font-family="Verdana" font-size="12">1,1</text>
</g>

<!-- Entity BON_RECEPTION -->
<g>
	<g>
		<rect x="31" y="26" width="138" height="25" fill="#a6dba0" stroke="none" stroke-width="0" opacity="1"/>
		<rect x="31" y="51" width="138" height="93" fill="#d9f0d3" stroke="none" stroke-width="0" opacity="1"/>
		<rect x="31" y="26" width="138" height="118" fill="none" stroke="#5aae61" stroke-width="2" opacity="1"/>
		<line x1="31" y1="51" x2="169" y2="51" stroke="#5aae61" stroke-width="1"/>
	</g>
	<text x="48" y="43.75" fill="#000000" font-family="Verdana" font-size="12">BON_RECEPTION</text>
	<text x="36" y="68.8" fill="#000000" font-family="Verdana" font-size="12">idBon</text>
	<line x1="36" y1="71" x2="71" y2="71" stroke="#000000" stroke-width="1"/>
	<text x="36" y="85.8" fill="#000000" font-family="Verdana" font-size="12">reference</text>
	<text x="36" y="102.8" fill="#000000" font-family="Verdana" font-size="12">dateCreation</text>
	<text x="36" y="119.8" fill="#000000" font-family="Verdana" font-size="12">dateReceptionPrevue</text>
	<text x="36" y="136.8" fill="#000000" font-family="Verdana" font-size="12">statut</text>
</g>

<!-- Entity COLIS -->
<g>
	<g>
		<rect x="440" y="17" width="88" height="25" fill="#a6dba0" stroke="none" stroke-width="0" opacity="1"/>
		<rect x="440" y="42" width="88" height="111" fill="#d9f0d3" stroke="none" stroke-width="0" opacity="1"/>
		<rect x="440" y="17" width="88" height="136" fill="none" stroke="#5aae61" stroke-width="2" opacity="1"/>
		<line x1="440" y1="42" x2="528" y2="42" stroke="#5aae61" stroke-width="1"/>
	</g>
	<text x="465" y="34.75" fill="#000000" font-family="Verdana" font-size="12">COLIS</text>
	<text x="445" y="59.8" fill="#000000" font-family="Verdana" font-size="12">idColis</text>
	<line x1="445" y1="62" x2="485" y2="62" stroke="#000000" stroke-width="1"/>
	<text x="445" y="76.8" fill="#000000" font-family="Verdana" font-size="12">reference</text>
	<text x="445" y="93.8" fill="#000000" font-family="Verdana" font-size="12">dateCreation</text>
	<text x="445" y="110.8" fill="#000000" font-family="Verdana" font-size="12">statut</text>
	<text x="445" y="127.8" fill="#000000" font-family="Verdana" font-size="12">poidsTotal</text>
	<text x="445" y="144.8" fill="#000000" font-family="Verdana" font-size="12">volumeTotal</text>
</g>

<!-- Entity LOT -->
<g>
	<g>
		<rect x="751" y="9" width="124" height="25" fill="#a6dba0" stroke="none" stroke-width="0" opacity="1"/>
		<rect x="751" y="34" width="124" height="127" fill="#d9f0d3" stroke="none" stroke-width="0" opacity="1"/>
		<rect x="751" y="9" width="124" height="152" fill="none" stroke="#5aae61" stroke-width="2" opacity="1"/>
		<line x1="751" y1="34" x2="875" y2="34" stroke="#5aae61" stroke-width="1"/>
	</g>
	<text x="801" y="26.75" fill="#000000" font-family="Verdana" font-size="12">LOT</text>
	<text x="756" y="51.8" fill="#000000" font-family="Verdana" font-size="12">idLot</text>
	<line x1="756" y1="54" x2="786" y2="54" stroke="#000000" stroke-width="1"/>
	<text x="756" y="68.8" fill="#000000" font-family="Verdana" font-size="12">numeroLot</text>
	<text x="756" y="85.8" fill="#000000" font-family="Verdana" font-size="12">quantiteInitiale</text>
	<text x="756" y="102.8" fill="#000000" font-family="Verdana" font-size="12">quantiteDisponible</text>
	<text x="756" y="119.8" fill="#000000" font-family="Verdana" font-size="12">dateProduction</text>
	<text x="756" y="136.8" fill="#000000" font-family="Verdana" font-size="12">dateExpiration</text>
	<text x="756" y="153.8" fill="#000000" font-family="Verdana" font-size="12">statut</text>
</g>

<!-- Entity ENTREPOT -->
<g>
	<g>
		<rect x="1095" y="9" width="118" height="25" fill="#a6dba0" stroke="none" stroke-width="0" opacity="1"/>
		<rect x="1095" y="34" width="118" height="127" fill="#d9f0d3" stroke="none" stroke-width="0" opacity="1"/>
		<rect x="1095" y="9" width="118" height="152" fill="none" stroke="#5aae61" stroke-width="2" opacity="1"/>
		<line x1="1095" y1="34" x2="1213" y2="34" stroke="#5aae61" stroke-width="1"/>
	</g>
	<text x="1122" y="26.75" fill="#000000" font-family="Verdana" font-size="12">ENTREPOT</text>
	<text x="1100" y="51.8" fill="#000000" font-family="Verdana" font-size="12">idEntrepot</text>
	<line x1="1100" y1="54" x2="1163" y2="54" stroke="#000000" stroke-width="1"/>
	<text x="1100" y="68.8" fill="#000000" font-family="Verdana" font-size="12">nom</text>
	<text x="1100" y="85.8" fill="#000000" font-family="Verdana" font-size="12">adresse</text>
	<text x="1100" y="102.8" fill="#000000" font-family="Verdana" font-size="12">telephone</text>
	<text x="1100" y="119.8" fill="#000000" font-family="Verdana" font-size="12">description</text>
	<text x="1100" y="136.8" fill="#000000" font-family="Verdana" font-size="12">capaciteMaximale</text>
	<text x="1100" y="153.8" fill="#000000" font-family="Verdana" font-size="12">statut</text>
</g>

<!-- Entity BON_EXPEDITION -->
<g>
	<g>
		<rect x="223" y="160" width="142" height="25" fill="#a6dba0" stroke="none" stroke-width="0" opacity="1"/>
		<rect x="223" y="185" width="142" height="111" fill="#d9f0d3" stroke="none" stroke-width="0" opacity="1"/>
		<rect x="223" y="160" width="142" height="136" fill="none" stroke="#5aae61" stroke-width="2" opacity="1"/>
		<line x1="223" y1="185" x2="365" y2="185" stroke="#5aae61" stroke-width="1"/>
	</g>
	<text x="239" y="177.75" fill="#000000" font-family="Verdana" font-size="12">BON_EXPEDITION</text>
	<text x="228" y="202.8" fill="#000000" font-family="Verdana" font-size="12">idBon</text>
	<line x1="228" y1="205" x2="263" y2="205" stroke="#000000" stroke-width="1"/>
	<text x="228" y="219.8" fill="#000000" font-family="Verdana" font-size="12">reference</text>
	<text x="228" y="236.8" fill="#000000" font-family="Verdana" font-size="12">dateCreation</text>
	<text x="228" y="253.8" fill="#000000" font-family="Verdana" font-size="12">dateExpeditionPrevue</text>
	<text x="228" y="270.8" fill="#000000" font-family="Verdana" font-size="12">priorite</text>
	<text x="228" y="287.8" fill="#000000" font-family="Verdana" font-size="12">statut</text>
</g>

<!-- Entity CELLULE -->
<g>
	<g>
		<rect x="931" y="135" width="108" height="25" fill="#a6dba0" stroke="none" stroke-width="0" opacity="1"/>
		<rect x="931" y="160" width="108" height="161" fill="#d9f0d3" stroke="none" stroke-width="0" opacity="1"/>
		<rect x="931" y="135" width="108" height="186" fill="none" stroke="#5aae61" stroke-width="2" opacity="1"/>
		<line x1="931" y1="160" x2="1039" y2="160" stroke="#5aae61" stroke-width="1"/>
	</g>
	<text x="959" y="152.75" fill="#000000" font-family="Verdana" font-size="12">CELLULE</text>
	<text x="936" y="177.8" fill="#000000" font-family="Verdana" font-size="12">idCellule</text>
	<line x1="936" y1="180" x2="988" y2="180" stroke="#000000" stroke-width="1"/>
	<text x="936" y="194.8" fill="#000000" font-family="Verdana" font-size="12">reference</text>
	<text x="936" y="211.8" fill="#000000" font-family="Verdana" font-size="12">longueur</text>
	<text x="936" y="228.8" fill="#000000" font-family="Verdana" font-size="12">largeur</text>
	<text x="936" y="245.8" fill="#000000" font-family="Verdana" font-size="12">hauteur</text>
	<text x="936" y="262.8" fill="#000000" font-family="Verdana" font-size="12">masseMaximale</text>
	<text x="936" y="279.8" fill="#000000" font-family="Verdana" font-size="12">volumeMaximal</text>
	<text x="936" y="296.8" fill="#000000" font-family="Verdana" font-size="12">statut</text>
	<text x="936" y="313.8" fill="#000000" font-family="Verdana" font-size="12">position</text>
</g>

<!-- Entity INDIVIDU -->
<g>
	<g>
		<rect x="64" y="355" width="72" height="25" fill="#a6dba0" stroke="none" stroke-width="0" opacity="1"/>
		<rect x="64" y="380" width="72" height="93" fill="#d9f0d3" stroke="none" stroke-width="0" opacity="1"/>
		<rect x="64" y="355" width="72" height="118" fill="none" stroke="#5aae61" stroke-width="2" opacity="1"/>
		<line x1="64" y1="380" x2="136" y2="380" stroke="#5aae61" stroke-width="1"/>
	</g>
	<text x="70" y="372.75" fill="#000000" font-family="Verdana" font-size="12">INDIVIDU</text>
	<text x="69" y="397.8" fill="#000000" font-family="Verdana" font-size="12">idIndividu</text>
	<line x1="69" y1="400" x2="130" y2="400" stroke="#000000" stroke-width="1"/>
	<text x="69" y="414.8" fill="#000000" font-family="Verdana" font-size="12">nom</text>
	<text x="69" y="431.8" fill="#000000" font-family="Verdana" font-size="12">adresse</text>
	<text x="69" y="448.8" fill="#000000" font-family="Verdana" font-size="12">telephone</text>
	<text x="69" y="465.8" fill="#000000" font-family="Verdana" font-size="12">email</text>
</g>

<!-- Entity PRODUIT -->
<g>
	<g>
		<rect x="586" y="329" width="140" height="25" fill="#a6dba0" stroke="none" stroke-width="0" opacity="1"/>
		<rect x="586" y="354" width="140" height="145" fill="#d9f0d3" stroke="none" stroke-width="0" opacity="1"/>
		<rect x="586" y="329" width="140" height="170" fill="none" stroke="#5aae61" stroke-width="2" opacity="1"/>
		<line x1="586" y1="354" x2="726" y2="354" stroke="#5aae61" stroke-width="1"/>
	</g>
	<text x="628" y="346.75" fill="#000000" font-family="Verdana" font-size="12">PRODUIT</text>
	<text x="591" y="371.8" fill="#000000" font-family="Verdana" font-size="12">idProduit</text>
	<line x1="591" y1="374" x2="645" y2="374" stroke="#000000" stroke-width="1"/>
	<text x="591" y="388.8" fill="#000000" font-family="Verdana" font-size="12">reference</text>
	<text x="591" y="405.8" fill="#000000" font-family="Verdana" font-size="12">nom</text>
	<text x="591" y="422.8" fill="#000000" font-family="Verdana" font-size="12">description</text>
	<text x="591" y="439.8" fill="#000000" font-family="Verdana" font-size="12">marque</text>
	<text x="591" y="456.8" fill="#000000" font-family="Verdana" font-size="12">modele</text>
	<text x="591" y="473.8" fill="#000000" font-family="Verdana" font-size="12">type</text>
	<text x="591" y="490.8" fill="#000000" font-family="Verdana" font-size="12">estMaterielEmballage</text>
</g>

<!-- Entity PRODUIT_MATERIEL -->
<g>
	<g>
		<rect x="917" y="346" width="136" height="25" fill="#a6dba0" stroke="none" stroke-width="0" opacity="1"/>
		<rect x="917" y="371" width="136" height="111" fill="#d9f0d3" stroke="none" stroke-width="0" opacity="1"/>
		<rect x="917" y="346" width="136" height="136" fill="none" stroke="#5aae61" stroke-width="2" opacity="1"/>
		<line x1="917" y1="371" x2="1053" y2="371" stroke="#5aae61" stroke-width="1"/>
	</g>
	<text x="923" y="363.75" fill="#000000" font-family="Verdana" font-size="12">PRODUIT_MATERIEL</text>
	<text x="922" y="388.8" fill="#000000" font-family="Verdana" font-size="12">idProduit</text>
	<line x1="922" y1="391" x2="976" y2="391" stroke="#000000" stroke-width="1" stroke-dasharray="4"/>
	<text x="922" y="405.8" fill="#000000" font-family="Verdana" font-size="12">longueur</text>
	<text x="922" y="422.8" fill="#000000" font-family="Verdana" font-size="12">largeur</text>
	<text x="922" y="439.8" fill="#000000" font-family="Verdana" font-size="12">hauteur</text>
	<text x="922" y="456.8" fill="#000000" font-family="Verdana" font-size="12">masse</text>
	<text x="922" y="473.8" fill="#000000" font-family="Verdana" font-size="12">volume</text>
</g>

<!-- Entity ORGANISATION -->
<g>
	<g>
		<rect x="430" y="499" width="108" height="25" fill="#a6dba0" stroke="none" stroke-width="0" opacity="1"/>
		<rect x="430" y="524" width="108" height="93" fill="#d9f0d3" stroke="none" stroke-width="0" opacity="1"/>
		<rect x="430" y="499" width="108" height="118" fill="none" stroke="#5aae61" stroke-width="2" opacity="1"/>
		<line x1="430" y1="524" x2="538" y2="524" stroke="#5aae61" stroke-width="1"/>
	</g>
	<text x="435" y="516.75" fill="#000000" font-family="Verdana" font-size="12">ORGANISATION</text>
	<text x="435" y="541.8" fill="#000000" font-family="Verdana" font-size="12">idOrganisation</text>
	<line x1="435" y1="544" x2="523" y2="544" stroke="#000000" stroke-width="1"/>
	<text x="435" y="558.8" fill="#000000" font-family="Verdana" font-size="12">nom</text>
	<text x="435" y="575.8" fill="#000000" font-family="Verdana" font-size="12">adresse</text>
	<text x="435" y="592.8" fill="#000000" font-family="Verdana" font-size="12">telephone</text>
	<text x="435" y="609.8" fill="#000000" font-family="Verdana" font-size="12">type</text>
</g>

<!-- Entity RAPPORT_EXCEPTION -->
<g>
	<g>
		<rect x="27" y="608" width="146" height="25" fill="#a6dba0" stroke="none" stroke-width="0" opacity="1"/>
		<rect x="27" y="633" width="146" height="111" fill="#d9f0d3" stroke="none" stroke-width="0" opacity="1"/>
		<rect x="27" y="608" width="146" height="136" fill="none" stroke="#5aae61" stroke-width="2" opacity="1"/>
		<line x1="27" y1="633" x2="173" y2="633" stroke="#5aae61" stroke-width="1"/>
	</g>
	<text x="33" y="625.75" fill="#000000" font-family="Verdana" font-size="12">RAPPORT_EXCEPTION</text>
	<text x="32" y="650.8" fill="#000000" font-family="Verdana" font-size="12">idRapport</text>
	<line x1="32" y1="653" x2="91" y2="653" stroke="#000000" stroke-width="1"/>
	<text x="32" y="667.8" fill="#000000" font-family="Verdana" font-size="12">typeRapport</text>
	<text x="32" y="684.8" fill="#000000" font-family="Verdana" font-size="12">dateGeneration</text>
	<text x="32" y="701.8" fill="#000000" font-family="Verdana" font-size="12">description</text>
	<text x="32" y="718.8" fill="#000000" font-family="Verdana" font-size="12">idBonReception</text>
	<text x="32" y="735.8" fill="#000000" font-family="Verdana" font-size="12">idBonExpedition</text>
</g>

<!-- Entity ROLE -->
<g>
	<g>
		<rect x="262" y="634" width="64" height="25" fill="#a6dba0" stroke="none" stroke-width="0" opacity="1"/>
		<rect x="262" y="659" width="64" height="59" fill="#d9f0d3" stroke="none" stroke-width="0" opacity="1"/>
		<rect x="262" y="634" width="64" height="84" fill="none" stroke="#5aae61" stroke-width="2" opacity="1"/>
		<line x1="262" y1="659" x2="326" y2="659" stroke="#5aae61" stroke-width="1"/>
	</g>
	<text x="278" y="651.75" fill="#000000" font-family="Verdana" font-size="12">ROLE</text>
	<text x="267" y="676.8" fill="#000000" font-family="Verdana" font-size="12">idRole</text>
	<line x1="267" y1="679" x2="305" y2="679" stroke="#000000" stroke-width="1"/>
	<text x="267" y="693.8" fill="#000000" font-family="Verdana" font-size="12">libelle</text>
	<text x="267" y="710.8" fill="#000000" font-family="Verdana" font-size="12">typeRole</text>
</g>

<!-- Entity FOURNISSEUR -->
<g>
	<g>
		<rect x="606" y="651" width="100" height="25" fill="#a6dba0" stroke="none" stroke-width="0" opacity="1"/>
		<rect x="606" y="676" width="100" height="25" fill="#d9f0d3" stroke="none" stroke-width="0" opacity="1"/>
		<rect x="606" y="651" width="100" height="50" fill="none" stroke="#5aae61" stroke-width="2" opacity="1"/>
		<line x1="606" y1="676" x2="706" y2="676" stroke="#5aae61" stroke-width="1"/>
	</g>
	<text x="611" y="668.75" fill="#000000" font-family="Verdana" font-size="12">FOURNISSEUR</text>
	<text x="611" y="693.8" fill="#000000" font-family="Verdana" font-size="12">idOrganisation</text>
	<line x1="611" y1="696" x2="699" y2="696" stroke="#000000" stroke-width="1" stroke-dasharray="4"/>
</g>

<!-- Entity PRODUIT_LOGICIEL -->
<g>
	<g>
		<rect x="747" y="625" width="132" height="25" fill="#a6dba0" stroke="none" stroke-width="0" opacity="1"/>
		<rect x="747" y="650" width="132" height="77" fill="#d9f0d3" stroke="none" stroke-width="0" opacity="1"/>
		<rect x="747" y="625" width="132" height="102" fill="none" stroke="#5aae61" stroke-width="2" opacity="1"/>
		<line x1="747" y1="650" x2="879" y2="650" stroke="#5aae61" stroke-width="1"/>
	</g>
	<text x="752" y="642.75" fill="#000000" font-family="Verdana" font-size="12">PRODUIT_LOGICIEL</text>
	<text x="752" y="667.8" fill="#000000" font-family="Verdana" font-size="12">idProduit</text>
	<line x1="752" y1="670" x2="806" y2="670" stroke="#000000" stroke-width="1" stroke-dasharray="4"/>
	<text x="752" y="684.8" fill="#000000" font-family="Verdana" font-size="12">version</text>
	<text x="752" y="701.8" fill="#000000" font-family="Verdana" font-size="12">typeLicence</text>
	<text x="752" y="718.8" fill="#000000" font-family="Verdana" font-size="12">dateExpiration</text>
</g>
</svg>